<?xml version="1.0" encoding="UTF-8" standalone="no"?>
<!DOCTYPE svg PUBLIC "-//W3C//DTD SVG 1.1//EN"
 "http://www.w3.org/Graphics/SVG/1.1/DTD/svg11.dtd">
<!-- Generated by graphviz version 2.40.1 (20161225.0304)
 -->
<!-- Title: mapa_resultado Pages: 1 -->
<svg width="1721pt" height="1193pt"
 viewBox="0.00 0.00 1720.63 1192.84" xmlns="http://www.w3.org/2000/svg" xmlns:xlink="http://www.w3.org/1999/xlink">
<g id="graph0" class="graph" transform="scale(1 1) rotate(0) translate(4 1188.8434)">
<title>mapa_resultado</title>
<polygon fill="#ffffff" stroke="transparent" points="-4,4 -4,-1188.8434 1716.6271,-1188.8434 1716.6271,4 -4,4"/>
<!-- Cuiaba &#45; MT -->
<g id="node1" class="node">
<title>Cuiaba &#45; MT</title>
<ellipse fill="none" stroke="#b2dfee" cx="257.9293" cy="-631.0107" rx="57.3777" ry="57.3777"/>
<ellipse fill="none" stroke="#b2dfee" cx="257.9293" cy="-631.0107" rx="61.3905" ry="61.3905"/>
<text text-anchor="middle" x="257.9293" y="-627.3107" font-family="Times,serif" font-size="14.00" fill="#000000">Cuiaba &#45; MT</text>
</g>
<!-- Goiania &#45; GO -->
<g id="node2" class="node">
<title>Goiania &#45; GO</title>
<ellipse fill="none" stroke="#b2dfee" cx="652.7656" cy="-851.5399" rx="59.2806" ry="59.2806"/>
<ellipse fill="none" stroke="#b2dfee" cx="652.7656" cy="-851.5399" rx="63.2898" ry="63.2898"/>
<text text-anchor="middle" x="652.7656" y="-847.8399" font-family="Times,serif" font-size="14.00" fill="#000000">Goiania &#45; GO</text>
</g>
<!-- Cuiaba &#45; MT&#45;&gt;Goiania &#45; GO -->
<g id="edge1" class="edge">
<title>Cuiaba &#45; MT&#45;&gt;Goiania &#45; GO</title>
<path fill="none" stroke="#000000" d="M311.5896,-660.9818C386.547,-702.848 521.8949,-778.4443 597.6336,-820.7469"/>
<text text-anchor="middle" x="444.1116" y="-744.6643" font-family="Times,serif" font-size="14.00" fill="#000000">895</text>
</g>
<!-- Posto &#45; MT/GO -->
<g id="node3" class="node">
<title>Posto &#45; MT/GO</title>
<ellipse fill="none" stroke="#b2dfee" cx="241.1915" cy="-1003.697" rx="66.8913" ry="66.8913"/>
<ellipse fill="none" stroke="#b2dfee" cx="241.1915" cy="-1003.697" rx="70.8882" ry="70.8882"/>
<text text-anchor="middle" x="241.1915" y="-999.997" font-family="Times,serif" font-size="14.00" fill="#000000">Posto &#45; MT/GO</text>
</g>
<!-- Cuiaba &#45; MT&#45;&gt;Posto &#45; MT/GO -->
<g id="edge2" class="edge">
<title>Cuiaba &#45; MT&#45;&gt;Posto &#45; MT/GO</title>
<path fill="none" stroke="#000000" d="M250.0358,-691.9037C245.0371,-757.8938 240.2219,-863.0733 238.9448,-932.7513"/>
<text text-anchor="middle" x="233.9903" y="-816.1275" font-family="Times,serif" font-size="14.00" fill="#000000">400</text>
</g>
<!-- Cuiaba &#45; MT&#45;&gt;Posto &#45; MT/GO -->
<g id="edge28" class="edge">
<title>Cuiaba &#45; MT&#45;&gt;Posto &#45; MT/GO</title>
<path fill="none" stroke="#ff0000" d="M260.3325,-692.3662C259.4396,-755.4369 255.1892,-853.9508 250.4858,-923.2358"/>
<polygon fill="#ff0000" stroke="#ff0000" points="246.9925,-923.0193 249.7889,-933.2384 253.9756,-923.5058 246.9925,-923.0193"/>
</g>
<!-- Campo Grande &#45; MS -->
<g id="node4" class="node">
<title>Campo Grande &#45; MS</title>
<ellipse fill="none" stroke="#b2dfee" cx="540.4603" cy="-446.655" rx="85.5945" ry="85.5945"/>
<ellipse fill="none" stroke="#b2dfee" cx="540.4603" cy="-446.655" rx="89.5853" ry="89.5853"/>
<text text-anchor="middle" x="540.4603" y="-442.955" font-family="Times,serif" font-size="14.00" fill="#000000">Campo Grande &#45; MS</text>
</g>
<!-- Cuiaba &#45; MT&#45;&gt;Campo Grande &#45; MS -->
<g id="edge4" class="edge">
<title>Cuiaba &#45; MT&#45;&gt;Campo Grande &#45; MS</title>
<path fill="none" stroke="#000000" d="M309.4213,-597.4114C352.9525,-569.0067 415.9032,-527.9304 465.1049,-495.8255"/>
<text text-anchor="middle" x="376.7631" y="-550.4185" font-family="Times,serif" font-size="14.00" fill="#000000">707</text>
</g>
<!-- Posto &#45; MT/MS -->
<g id="node5" class="node">
<title>Posto &#45; MT/MS</title>
<ellipse fill="none" stroke="#b2dfee" cx="209.9148" cy="-260.8398" rx="67.6829" ry="67.6829"/>
<ellipse fill="none" stroke="#b2dfee" cx="209.9148" cy="-260.8398" rx="71.6881" ry="71.6881"/>
<text text-anchor="middle" x="209.9148" y="-257.1398" font-family="Times,serif" font-size="14.00" fill="#000000">Posto &#45; MT/MS</text>
</g>
<!-- Cuiaba &#45; MT&#45;&gt;Posto &#45; MT/MS -->
<g id="edge5" class="edge">
<title>Cuiaba &#45; MT&#45;&gt;Posto &#45; MT/MS</title>
<path fill="none" stroke="#000000" d="M250.0545,-570.299C241.5809,-504.9714 228.1167,-401.1686 219.15,-332.0391"/>
<text text-anchor="middle" x="224.1022" y="-454.9691" font-family="Times,serif" font-size="14.00" fill="#000000">505</text>
</g>
<!-- Posto &#45; RJ/ES -->
<g id="node16" class="node">
<title>Posto &#45; RJ/ES</title>
<ellipse fill="none" stroke="#b2dfee" cx="63.7947" cy="-438.0905" rx="59.6029" ry="59.6029"/>
<ellipse fill="none" stroke="#b2dfee" cx="63.7947" cy="-438.0905" rx="63.59" ry="63.59"/>
<text text-anchor="middle" x="63.7947" y="-434.3905" font-family="Times,serif" font-size="14.00" fill="#000000">Posto &#45; RJ/ES</text>
</g>
<!-- Cuiaba &#45; MT&#45;&gt;Posto &#45; RJ/ES -->
<g id="edge26" class="edge">
<title>Cuiaba &#45; MT&#45;&gt;Posto &#45; RJ/ES</title>
<path fill="none" stroke="#000000" d="M214.3617,-587.7157C183.0601,-556.6098 140.9642,-514.7772 109.2417,-483.2532"/>
<text text-anchor="middle" x="151.3017" y="-539.2844" font-family="Times,serif" font-size="14.00" fill="#000000">505</text>
</g>
<!-- Goiania &#45; GO&#45;&gt;Campo Grande &#45; MS -->
<g id="edge7" class="edge">
<title>Goiania &#45; GO&#45;&gt;Campo Grande &#45; MS</title>
<path fill="none" stroke="#000000" d="M635.8307,-790.4862C616.8657,-722.1131 585.9797,-610.7624 564.515,-533.3776"/>
<text text-anchor="middle" x="589.6729" y="-665.7319" font-family="Times,serif" font-size="14.00" fill="#000000">846</text>
</g>
<!-- Posto &#45; GO/MS -->
<g id="node6" class="node">
<title>Posto &#45; GO/MS</title>
<ellipse fill="none" stroke="#b2dfee" cx="428.8296" cy="-781.861" rx="66.1005" ry="66.1005"/>
<ellipse fill="none" stroke="#b2dfee" cx="428.8296" cy="-781.861" rx="70.0888" ry="70.0888"/>
<text text-anchor="middle" x="428.8296" y="-778.161" font-family="Times,serif" font-size="14.00" fill="#000000">Posto &#45; GO/MS</text>
</g>
<!-- Goiania &#45; GO&#45;&gt;Posto &#45; GO/MS -->
<g id="edge8" class="edge">
<title>Goiania &#45; GO&#45;&gt;Posto &#45; GO/MS</title>
<path fill="none" stroke="#000000" d="M592.4603,-832.7756C562.6651,-823.5047 526.6188,-812.2887 495.9502,-802.746"/>
<text text-anchor="middle" x="533.7052" y="-821.5608" font-family="Times,serif" font-size="14.00" fill="#000000">505</text>
</g>
<!-- Belo Horizonte &#45; MG -->
<g id="node7" class="node">
<title>Belo Horizonte &#45; MG</title>
<ellipse fill="none" stroke="#b2dfee" cx="1219.5557" cy="-830.4425" rx="87.1806" ry="87.1806"/>
<ellipse fill="none" stroke="#b2dfee" cx="1219.5557" cy="-830.4425" rx="91.1846" ry="91.1846"/>
<text text-anchor="middle" x="1219.5557" y="-826.7425" font-family="Times,serif" font-size="14.00" fill="#000000">Belo Horizonte &#45; MG</text>
</g>
<!-- Goiania &#45; GO&#45;&gt;Belo Horizonte &#45; MG -->
<g id="edge10" class="edge">
<title>Goiania &#45; GO&#45;&gt;Belo Horizonte &#45; MG</title>
<path fill="none" stroke="#000000" d="M716.1338,-849.1812C816.5164,-845.4447 1012.538,-838.1482 1128.1351,-833.8454"/>
<text text-anchor="middle" x="911.6344" y="-845.3133" font-family="Times,serif" font-size="14.00" fill="#000000">890</text>
</g>
<!-- Posto &#45; GO/MG -->
<g id="node8" class="node">
<title>Posto &#45; GO/MG</title>
<ellipse fill="none" stroke="#b2dfee" cx="954.5567" cy="-1113.2494" rx="67.6829" ry="67.6829"/>
<ellipse fill="none" stroke="#b2dfee" cx="954.5567" cy="-1113.2494" rx="71.6881" ry="71.6881"/>
<text text-anchor="middle" x="954.5567" y="-1109.5494" font-family="Times,serif" font-size="14.00" fill="#000000">Posto &#45; GO/MG</text>
</g>
<!-- Goiania &#45; GO&#45;&gt;Posto &#45; GO/MG -->
<g id="edge11" class="edge">
<title>Goiania &#45; GO&#45;&gt;Posto &#45; GO/MG</title>
<path fill="none" stroke="#000000" d="M697.2513,-896.8531C750.2838,-945.67 838.9438,-1022.6552 897.1093,-1070.4686"/>
<text text-anchor="middle" x="786.6803" y="-987.4608" font-family="Times,serif" font-size="14.00" fill="#000000">505</text>
</g>
<!-- Goiania &#45; GO&#45;&gt;Posto &#45; GO/MG -->
<g id="edge30" class="edge">
<title>Goiania &#45; GO&#45;&gt;Posto &#45; GO/MG</title>
<path fill="none" stroke="#ff0000" d="M703.9192,-889.1641C757.2429,-932.7049 840.6023,-1004.7803 896.392,-1055.4355"/>
<polygon fill="#ff0000" stroke="#ff0000" points="894.326,-1058.288 904.0752,-1062.4358 899.0405,-1053.1136 894.326,-1058.288"/>
</g>
<!-- Posto &#45; MT/GO&#45;&gt;Goiania &#45; GO -->
<g id="edge3" class="edge">
<title>Posto &#45; MT/GO&#45;&gt;Goiania &#45; GO</title>
<path fill="none" stroke="#000000" d="M309.5535,-983.8908C389.5013,-956.7168 520.3998,-908.2455 595.3238,-878.0065"/>
<text text-anchor="middle" x="441.9386" y="-934.7487" font-family="Times,serif" font-size="14.00" fill="#000000">505</text>
</g>
<!-- Posto &#45; MT/GO&#45;&gt;Goiania &#45; GO -->
<g id="edge29" class="edge">
<title>Posto &#45; MT/GO&#45;&gt;Goiania &#45; GO</title>
<path fill="none" stroke="#ff0000" d="M305.9973,-974.2716C381.1799,-944.1923 504.6916,-898.5094 582.2318,-872.0852"/>
<polygon fill="#ff0000" stroke="#ff0000" points="583.5728,-875.3264 591.9213,-868.8032 581.327,-868.6964 583.5728,-875.3264"/>
</g>
<!-- Sao Paulo &#45; SP -->
<g id="node9" class="node">
<title>Sao Paulo &#45; SP</title>
<ellipse fill="none" stroke="#b2dfee" cx="1139.532" cy="-359.8891" rx="63.8777" ry="63.8777"/>
<ellipse fill="none" stroke="#b2dfee" cx="1139.532" cy="-359.8891" rx="67.8893" ry="67.8893"/>
<text text-anchor="middle" x="1139.532" y="-356.1891" font-family="Times,serif" font-size="14.00" fill="#000000">Sao Paulo &#45; SP</text>
</g>
<!-- Campo Grande &#45; MS&#45;&gt;Sao Paulo &#45; SP -->
<g id="edge13" class="edge">
<title>Campo Grande &#45; MS&#45;&gt;Sao Paulo &#45; SP</title>
<path fill="none" stroke="#000000" d="M629.5005,-433.759C750.4254,-416.2449 963.9001,-385.3266 1072.3071,-369.6256"/>
<text text-anchor="middle" x="836.9038" y="-405.4923" font-family="Times,serif" font-size="14.00" fill="#000000">1013</text>
</g>
<!-- Posto &#45; MS/SP -->
<g id="node10" class="node">
<title>Posto &#45; MS/SP</title>
<ellipse fill="none" stroke="#b2dfee" cx="812.2165" cy="-150.3593" rx="63.8777" ry="63.8777"/>
<ellipse fill="none" stroke="#b2dfee" cx="812.2165" cy="-150.3593" rx="67.8893" ry="67.8893"/>
<text text-anchor="middle" x="812.2165" y="-146.6593" font-family="Times,serif" font-size="14.00" fill="#000000">Posto &#45; MS/SP</text>
</g>
<!-- Campo Grande &#45; MS&#45;&gt;Posto &#45; MS/SP -->
<g id="edge14" class="edge">
<title>Campo Grande &#45; MS&#45;&gt;Posto &#45; MS/SP</title>
<path fill="none" stroke="#000000" d="M601.4477,-380.1605C651.3679,-325.7324 720.9007,-249.9209 766.2285,-200.5"/>
<text text-anchor="middle" x="673.3381" y="-294.1302" font-family="Times,serif" font-size="14.00" fill="#000000">505</text>
</g>
<!-- Posto &#45; MT/MS&#45;&gt;Campo Grande &#45; MS -->
<g id="edge6" class="edge">
<title>Posto &#45; MT/MS&#45;&gt;Campo Grande &#45; MS</title>
<path fill="none" stroke="#000000" d="M272.4765,-296.0087C326.2865,-326.2578 404.1629,-370.0358 462.1113,-402.6113"/>
<text text-anchor="middle" x="356.7939" y="-353.11" font-family="Times,serif" font-size="14.00" fill="#000000">300</text>
</g>
<!-- Posto &#45; GO/MS&#45;&gt;Campo Grande &#45; MS -->
<g id="edge9" class="edge">
<title>Posto &#45; GO/MS&#45;&gt;Campo Grande &#45; MS</title>
<path fill="none" stroke="#000000" d="M451.1514,-714.8327C468.6486,-662.2918 493.1144,-588.8257 512.0153,-532.0699"/>
<text text-anchor="middle" x="471.0834" y="-627.2513" font-family="Times,serif" font-size="14.00" fill="#000000">400</text>
</g>
<!-- Vitoria &#45; ES -->
<g id="node14" class="node">
<title>Vitoria &#45; ES</title>
<ellipse fill="none" stroke="#b2dfee" cx="1654.6819" cy="-748.258" rx="53.8943" ry="53.8943"/>
<ellipse fill="none" stroke="#b2dfee" cx="1654.6819" cy="-748.258" rx="57.8905" ry="57.8905"/>
<text text-anchor="middle" x="1654.6819" y="-744.558" font-family="Times,serif" font-size="14.00" fill="#000000">Vitoria &#45; ES</text>
</g>
<!-- Belo Horizonte &#45; MG&#45;&gt;Vitoria &#45; ES -->
<g id="edge22" class="edge">
<title>Belo Horizonte &#45; MG&#45;&gt;Vitoria &#45; ES</title>
<path fill="none" stroke="#000000" d="M1309.958,-819.0426C1396.8448,-804.4711 1525.4204,-779.9016 1598.503,-763.6894"/>
<text text-anchor="middle" x="1443.7305" y="-795.166" font-family="Times,serif" font-size="14.00" fill="#000000">523</text>
</g>
<!-- Belo Horizonte &#45; MG&#45;&gt;Vitoria &#45; ES -->
<g id="edge32" class="edge">
<title>Belo Horizonte &#45; MG&#45;&gt;Vitoria &#45; ES</title>
<path fill="none" stroke="#ff0000" d="M1307.8882,-808.0838C1390.2311,-790.7747 1511.3082,-768.0871 1586.4549,-756.012"/>
<polygon fill="#ff0000" stroke="#ff0000" points="1587.4163,-759.4034 1596.7447,-754.3803 1586.3199,-752.4898 1587.4163,-759.4034"/>
<text text-anchor="middle" x="1433.1715" y="-770.8479" font-family="Times,serif" font-size="14.00" fill="#000000">2323</text>
</g>
<!-- Posto &#45; MG/ES -->
<g id="node15" class="node">
<title>Posto &#45; MG/ES</title>
<ellipse fill="none" stroke="#b2dfee" cx="1616.429" cy="-1043.1683" rx="65.7804" ry="65.7804"/>
<ellipse fill="none" stroke="#b2dfee" cx="1616.429" cy="-1043.1683" rx="69.7886" ry="69.7886"/>
<text text-anchor="middle" x="1616.429" y="-1039.4683" font-family="Times,serif" font-size="14.00" fill="#000000">Posto &#45; MG/ES</text>
</g>
<!-- Belo Horizonte &#45; MG&#45;&gt;Posto &#45; MG/ES -->
<g id="edge23" class="edge">
<title>Belo Horizonte &#45; MG&#45;&gt;Posto &#45; MG/ES</title>
<path fill="none" stroke="#000000" d="M1299.8689,-873.4907C1375.1799,-913.8577 1486.1805,-973.3545 1554.7545,-1010.1104"/>
<text text-anchor="middle" x="1416.8117" y="-945.6006" font-family="Times,serif" font-size="14.00" fill="#000000">213</text>
</g>
<!-- Posto &#45; GO/MG&#45;&gt;Belo Horizonte &#45; MG -->
<g id="edge12" class="edge">
<title>Posto &#45; GO/MG&#45;&gt;Belo Horizonte &#45; MG</title>
<path fill="none" stroke="#000000" d="M1007.3933,-1064.7246C1051.9807,-1019.5815 1115.6528,-951.8481 1161.62,-900.7862"/>
<text text-anchor="middle" x="1074.0066" y="-986.5554" font-family="Times,serif" font-size="14.00" fill="#000000">390</text>
</g>
<!-- Posto &#45; GO/MG&#45;&gt;Belo Horizonte &#45; MG -->
<g id="edge31" class="edge">
<title>Posto &#45; GO/MG&#45;&gt;Belo Horizonte &#45; MG</title>
<path fill="none" stroke="#ff0000" d="M999.5475,-1057.3728C1039.6413,-1012.2633 1099.0086,-948.5965 1145.9901,-900.1591"/>
<polygon fill="#ff0000" stroke="#ff0000" points="1148.6604,-902.4336 1153.1232,-892.8245 1143.6422,-897.5532 1148.6604,-902.4336"/>
</g>
<!-- Sao Paulo &#45; SP&#45;&gt;Belo Horizonte &#45; MG -->
<g id="edge19" class="edge">
<title>Sao Paulo &#45; SP&#45;&gt;Belo Horizonte &#45; MG</title>
<path fill="none" stroke="#000000" d="M1150.9124,-426.8082C1164.8933,-509.0178 1188.6679,-648.8169 1204.2424,-740.3978"/>
<text text-anchor="middle" x="1167.0774" y="-587.403" font-family="Times,serif" font-size="14.00" fill="#000000">592</text>
</g>
<!-- Rio de Janeiro &#45; RJ -->
<g id="node11" class="node">
<title>Rio de Janeiro &#45; RJ</title>
<ellipse fill="none" stroke="#b2dfee" cx="1592.0349" cy="-339.4378" rx="79.0964" ry="79.0964"/>
<ellipse fill="none" stroke="#b2dfee" cx="1592.0349" cy="-339.4378" rx="83.0864" ry="83.0864"/>
<text text-anchor="middle" x="1592.0349" y="-335.7378" font-family="Times,serif" font-size="14.00" fill="#000000">Rio de Janeiro &#45; RJ</text>
</g>
<!-- Sao Paulo &#45; SP&#45;&gt;Rio de Janeiro &#45; RJ -->
<g id="edge16" class="edge">
<title>Sao Paulo &#45; SP&#45;&gt;Rio de Janeiro &#45; RJ</title>
<path fill="none" stroke="#000000" d="M1207.2762,-356.8274C1287.7745,-353.1892 1422.0702,-347.1195 1508.8156,-343.199"/>
<text text-anchor="middle" x="1347.5459" y="-353.8132" font-family="Times,serif" font-size="14.00" fill="#000000">441</text>
</g>
<!-- Posto &#45; SP/RJ -->
<g id="node12" class="node">
<title>Posto &#45; SP/RJ</title>
<ellipse fill="none" stroke="#b2dfee" cx="1479.678" cy="-63.7947" rx="59.6029" ry="59.6029"/>
<ellipse fill="none" stroke="#b2dfee" cx="1479.678" cy="-63.7947" rx="63.59" ry="63.59"/>
<text text-anchor="middle" x="1479.678" y="-60.0947" font-family="Times,serif" font-size="14.00" fill="#000000">Posto &#45; SP/RJ</text>
</g>
<!-- Sao Paulo &#45; SP&#45;&gt;Posto &#45; SP/RJ -->
<g id="edge17" class="edge">
<title>Sao Paulo &#45; SP&#45;&gt;Posto &#45; SP/RJ</title>
<path fill="none" stroke="#000000" d="M1190.8236,-315.2402C1256.059,-258.4533 1367.8644,-161.1276 1431.5506,-105.6892"/>
<text text-anchor="middle" x="1300.6871" y="-214.2647" font-family="Times,serif" font-size="14.00" fill="#000000">265</text>
</g>
<!-- Posto &#45; SP/MG -->
<g id="node13" class="node">
<title>Posto &#45; SP/MG</title>
<ellipse fill="none" stroke="#b2dfee" cx="1360.095" cy="-571.6607" rx="64.9888" ry="64.9888"/>
<ellipse fill="none" stroke="#b2dfee" cx="1360.095" cy="-571.6607" rx="68.9885" ry="68.9885"/>
<text text-anchor="middle" x="1360.095" y="-567.9607" font-family="Times,serif" font-size="14.00" fill="#000000">Posto &#45; SP/MG</text>
</g>
<!-- Sao Paulo &#45; SP&#45;&gt;Posto &#45; SP/MG -->
<g id="edge20" class="edge">
<title>Sao Paulo &#45; SP&#45;&gt;Posto &#45; SP/MG</title>
<path fill="none" stroke="#000000" d="M1188.4821,-406.8881C1224.6524,-441.6167 1273.729,-488.7372 1310.1363,-523.6933"/>
<text text-anchor="middle" x="1238.8092" y="-469.0907" font-family="Times,serif" font-size="14.00" fill="#000000">281</text>
</g>
<!-- Posto &#45; MS/SP&#45;&gt;Sao Paulo &#45; SP -->
<g id="edge15" class="edge">
<title>Posto &#45; MS/SP&#45;&gt;Sao Paulo &#45; SP</title>
<path fill="none" stroke="#000000" d="M869.2305,-186.8566C929.0323,-225.1385 1022.483,-284.9606 1082.3484,-323.2832"/>
<text text-anchor="middle" x="965.2894" y="-258.8699" font-family="Times,serif" font-size="14.00" fill="#000000">600</text>
</g>
<!-- Rio de Janeiro &#45; RJ&#45;&gt;Vitoria &#45; ES -->
<g id="edge25" class="edge">
<title>Rio de Janeiro &#45; RJ&#45;&gt;Vitoria &#45; ES</title>
<path fill="none" stroke="#000000" d="M1604.7125,-422.1687C1616.9579,-502.0798 1635.181,-620.9996 1645.9046,-690.9794"/>
<text text-anchor="middle" x="1614.8085" y="-560.3741" font-family="Times,serif" font-size="14.00" fill="#000000">527</text>
</g>
<!-- Posto &#45; SP/RJ&#45;&gt;Rio de Janeiro &#45; RJ -->
<g id="edge18" class="edge">
<title>Posto &#45; SP/RJ&#45;&gt;Rio de Janeiro &#45; RJ</title>
<path fill="none" stroke="#000000" d="M1503.7814,-122.9271C1520.353,-163.5818 1542.5243,-217.9743 1560.4985,-262.07"/>
<text text-anchor="middle" x="1521.64" y="-196.2985" font-family="Times,serif" font-size="14.00" fill="#000000">221</text>
</g>
<!-- Posto &#45; SP/MG&#45;&gt;Belo Horizonte &#45; MG -->
<g id="edge21" class="edge">
<title>Posto &#45; SP/MG&#45;&gt;Belo Horizonte &#45; MG</title>
<path fill="none" stroke="#000000" d="M1327.1448,-632.3336C1308.0789,-667.4404 1283.8495,-712.0552 1263.213,-750.0541"/>
<text text-anchor="middle" x="1284.6789" y="-694.9938" font-family="Times,serif" font-size="14.00" fill="#000000">339</text>
</g>
<!-- Posto &#45; MG/ES&#45;&gt;Vitoria &#45; ES -->
<g id="edge24" class="edge">
<title>Posto &#45; MG/ES&#45;&gt;Vitoria &#45; ES</title>
<path fill="none" stroke="#000000" d="M1625.3976,-974.0249C1632.0225,-922.9507 1640.9378,-854.2182 1647.1849,-806.0556"/>
<text text-anchor="middle" x="1625.7913" y="-893.8402" font-family="Times,serif" font-size="14.00" fill="#000000">332</text>
</g>
<!-- Posto &#45; RJ/ES&#45;&gt;Campo Grande &#45; MS -->
<g id="edge27" class="edge">
<title>Posto &#45; RJ/ES&#45;&gt;Campo Grande &#45; MS</title>
<path fill="none" stroke="#000000" d="M127.5853,-439.2366C210.6674,-440.7294 356.3907,-443.3477 450.6254,-445.0409"/>
<text text-anchor="middle" x="278.6054" y="-445.9388" font-family="Times,serif" font-size="14.00" fill="#000000">300</text>
</g>
</g>
</svg>
