<?xml version="1.0" encoding="UTF-8" standalone="no"?>
<!DOCTYPE svg PUBLIC "-//W3C//DTD SVG 1.1//EN"
 "http://www.w3.org/Graphics/SVG/1.1/DTD/svg11.dtd">
<!-- Generated by graphviz version 2.40.1 (20161225.0304)
 -->
<!-- Title: ./App/static/img/mapa_resultado Pages: 1 -->
<svg width="2050pt" height="1169pt"
 viewBox="0.00 0.00 2049.88 1169.24" xmlns="http://www.w3.org/2000/svg" xmlns:xlink="http://www.w3.org/1999/xlink">
<g id="graph0" class="graph" transform="scale(1 1) rotate(0) translate(4 1165.2375)">
<title>./App/static/img/mapa_resultado</title>
<polygon fill="#ffffff" stroke="transparent" points="-4,4 -4,-1165.2375 2045.8847,-1165.2375 2045.8847,4 -4,4"/>
<!-- Cuiaba &#45; MT -->
<g id="node1" class="node">
<title>Cuiaba &#45; MT</title>
<ellipse fill="none" stroke="#b2dfee" cx="135.4617" cy="-583.5273" rx="60.8402" ry="60.8402"/>
<ellipse fill="none" stroke="#b2dfee" cx="135.4617" cy="-583.5273" rx="64.8352" ry="64.8352"/>
<text text-anchor="middle" x="135.4617" y="-579.3273" font-family="Times,serif" font-size="14.00" fill="#000000">Cuiaba &#45; MT</text>
</g>
<!-- Goiania &#45; GO -->
<g id="node2" class="node">
<title>Goiania &#45; GO</title>
<ellipse fill="none" stroke="#b2dfee" cx="514.1119" cy="-370.3774" rx="63.6778" ry="63.6778"/>
<ellipse fill="none" stroke="#b2dfee" cx="514.1119" cy="-370.3774" rx="67.6832" ry="67.6832"/>
<text text-anchor="middle" x="514.1119" y="-366.1774" font-family="Times,serif" font-size="14.00" fill="#000000">Goiania &#45; GO</text>
</g>
<!-- Cuiaba &#45; MT&#45;&gt;Goiania &#45; GO -->
<g id="edge1" class="edge">
<title>Cuiaba &#45; MT&#45;&gt;Goiania &#45; GO</title>
<path fill="none" stroke="#000000" d="M192.1495,-551.6166C262.9138,-511.782 383.3602,-443.9802 455.1638,-403.5605"/>
<text text-anchor="middle" x="313.1566" y="-481.7886" font-family="Times,serif" font-size="14.00" fill="#000000">895</text>
</g>
<!-- Posto &#45; MT/GO -->
<g id="node3" class="node">
<title>Posto &#45; MT/GO</title>
<ellipse fill="none" stroke="#b2dfee" cx="75.6541" cy="-246.4314" rx="71.8004" ry="71.8004"/>
<ellipse fill="none" stroke="#b2dfee" cx="75.6541" cy="-246.4314" rx="75.8085" ry="75.8085"/>
<text text-anchor="middle" x="75.6541" y="-242.2314" font-family="Times,serif" font-size="14.00" fill="#000000">Posto &#45; MT/GO</text>
</g>
<!-- Cuiaba &#45; MT&#45;&gt;Posto &#45; MT/GO -->
<g id="edge2" class="edge">
<title>Cuiaba &#45; MT&#45;&gt;Posto &#45; MT/GO</title>
<path fill="none" stroke="#000000" d="M129.4818,-518.7785C121.0829,-461.8929 106.5047,-379.1779 94.4788,-319.8467"/>
<text text-anchor="middle" x="101.4803" y="-423.5126" font-family="Times,serif" font-size="14.00" fill="#000000">400</text>
</g>
<!-- Cuiaba &#45; MT&#45;&gt;Posto &#45; MT/GO -->
<g id="edge28" class="edge">
<title>Cuiaba &#45; MT&#45;&gt;Posto &#45; MT/GO</title>
<path fill="none" stroke="#ff0000" d="M118.8023,-520.6732C107.7583,-467.4494 93.9587,-390.6532 84.7794,-331.8572"/>
<polygon fill="#ff0000" stroke="#ff0000" points="88.2181,-331.191 83.2341,-321.8417 81.3,-332.2585 88.2181,-331.191"/>
</g>
<!-- Campo Grande &#45; MS -->
<g id="node4" class="node">
<title>Campo Grande &#45; MS</title>
<ellipse fill="none" stroke="#b2dfee" cx="514.716" cy="-796.0201" rx="91.5285" ry="91.5285"/>
<ellipse fill="none" stroke="#b2dfee" cx="514.716" cy="-796.0201" rx="95.5184" ry="95.5184"/>
<text text-anchor="middle" x="514.716" y="-791.8201" font-family="Times,serif" font-size="14.00" fill="#000000">Campo Grande &#45; MS</text>
</g>
<!-- Cuiaba &#45; MT&#45;&gt;Campo Grande &#45; MS -->
<g id="edge4" class="edge">
<title>Cuiaba &#45; MT&#45;&gt;Campo Grande &#45; MS</title>
<path fill="none" stroke="#000000" d="M192.2399,-615.3396C255.4715,-650.7677 358.3078,-708.386 430.8229,-749.0155"/>
<text text-anchor="middle" x="301.0314" y="-686.3776" font-family="Times,serif" font-size="14.00" fill="#000000">707</text>
</g>
<!-- Posto &#45; MT/MS -->
<g id="node5" class="node">
<title>Posto &#45; MT/MS</title>
<ellipse fill="none" stroke="#b2dfee" cx="76.3018" cy="-920.9802" rx="71.8192" ry="71.8192"/>
<ellipse fill="none" stroke="#b2dfee" cx="76.3018" cy="-920.9802" rx="75.8279" ry="75.8279"/>
<text text-anchor="middle" x="76.3018" y="-916.7802" font-family="Times,serif" font-size="14.00" fill="#000000">Posto &#45; MT/MS</text>
</g>
<!-- Cuiaba &#45; MT&#45;&gt;Posto &#45; MT/MS -->
<g id="edge5" class="edge">
<title>Cuiaba &#45; MT&#45;&gt;Posto &#45; MT/MS</title>
<path fill="none" stroke="#000000" d="M124.195,-647.7939C114.2716,-704.3975 99.8149,-786.8598 89.3832,-846.3632"/>
<text text-anchor="middle" x="96.2891" y="-751.2786" font-family="Times,serif" font-size="14.00" fill="#000000">505</text>
</g>
<!-- Goiania &#45; GO&#45;&gt;Campo Grande &#45; MS -->
<g id="edge7" class="edge">
<title>Goiania &#45; GO&#45;&gt;Campo Grande &#45; MS</title>
<path fill="none" stroke="#000000" d="M514.2083,-438.2924C514.3087,-509.0569 514.467,-620.5269 514.5801,-700.2235"/>
<text text-anchor="middle" x="503.8942" y="-573.458" font-family="Times,serif" font-size="14.00" fill="#000000">846</text>
</g>
<!-- Posto &#45; GO/MS -->
<g id="node6" class="node">
<title>Posto &#45; GO/MS</title>
<ellipse fill="none" stroke="#b2dfee" cx="332.4165" cy="-583.282" rx="71.2396" ry="71.2396"/>
<ellipse fill="none" stroke="#b2dfee" cx="332.4165" cy="-583.282" rx="75.2462" ry="75.2462"/>
<text text-anchor="middle" x="332.4165" y="-579.082" font-family="Times,serif" font-size="14.00" fill="#000000">Posto &#45; GO/MS</text>
</g>
<!-- Goiania &#45; GO&#45;&gt;Posto &#45; GO/MS -->
<g id="edge8" class="edge">
<title>Goiania &#45; GO&#45;&gt;Posto &#45; GO/MS</title>
<path fill="none" stroke="#000000" d="M470.1285,-421.9157C443.3469,-453.2975 409.0827,-493.4471 381.4325,-525.8467"/>
<text text-anchor="middle" x="415.2805" y="-478.0812" font-family="Times,serif" font-size="14.00" fill="#000000">350</text>
</g>
<!-- Belo Horizonte &#45; MG -->
<g id="node7" class="node">
<title>Belo Horizonte &#45; MG</title>
<ellipse fill="none" stroke="#b2dfee" cx="1110.8066" cy="-335.9151" rx="93.8058" ry="93.8058"/>
<ellipse fill="none" stroke="#b2dfee" cx="1110.8066" cy="-335.9151" rx="97.8017" ry="97.8017"/>
<text text-anchor="middle" x="1110.8066" y="-331.7151" font-family="Times,serif" font-size="14.00" fill="#000000">Belo Horizonte &#45; MG</text>
</g>
<!-- Goiania &#45; GO&#45;&gt;Belo Horizonte &#45; MG -->
<g id="edge10" class="edge">
<title>Goiania &#45; GO&#45;&gt;Belo Horizonte &#45; MG</title>
<path fill="none" stroke="#000000" d="M581.6897,-366.4745C687.1856,-360.3815 891.4884,-348.5819 1013.0426,-341.5615"/>
<text text-anchor="middle" x="786.8662" y="-358.218" font-family="Times,serif" font-size="14.00" fill="#000000">890</text>
</g>
<!-- Posto &#45; GO/MG -->
<g id="node8" class="node">
<title>Posto &#45; GO/MG</title>
<ellipse fill="none" stroke="#b2dfee" cx="783.783" cy="-76.726" rx="72.9409" ry="72.9409"/>
<ellipse fill="none" stroke="#b2dfee" cx="783.783" cy="-76.726" rx="76.9527" ry="76.9527"/>
<text text-anchor="middle" x="783.783" y="-72.526" font-family="Times,serif" font-size="14.00" fill="#000000">Posto &#45; GO/MG</text>
</g>
<!-- Goiania &#45; GO&#45;&gt;Posto &#45; GO/MG -->
<g id="edge11" class="edge">
<title>Goiania &#45; GO&#45;&gt;Posto &#45; GO/MG</title>
<path fill="none" stroke="#000000" d="M563.7005,-324.0922C612.7801,-273.5467 687.3267,-192.4894 735.8296,-137.0117"/>
<text text-anchor="middle" x="639.265" y="-234.752" font-family="Times,serif" font-size="14.00" fill="#000000">500</text>
</g>
<!-- Goiania &#45; GO&#45;&gt;Posto &#45; GO/MG -->
<g id="edge30" class="edge">
<title>Goiania &#45; GO&#45;&gt;Posto &#45; GO/MG</title>
<path fill="none" stroke="#ff0000" d="M556.0154,-317.0347C600.132,-266.2268 670.0057,-189.9072 720.7605,-136.9427"/>
<polygon fill="#ff0000" stroke="#ff0000" points="723.3839,-139.2642 727.7907,-129.6293 718.3373,-134.4131 723.3839,-139.2642"/>
</g>
<!-- Posto &#45; MT/GO&#45;&gt;Goiania &#45; GO -->
<g id="edge3" class="edge">
<title>Posto &#45; MT/GO&#45;&gt;Goiania &#45; GO</title>
<path fill="none" stroke="#000000" d="M147.1398,-272.0215C230.3192,-297.7821 366.5642,-336.2241 447.5698,-356.7312"/>
<text text-anchor="middle" x="286.8548" y="-318.5763" font-family="Times,serif" font-size="14.00" fill="#000000">495</text>
</g>
<!-- Posto &#45; MT/GO&#45;&gt;Goiania &#45; GO -->
<g id="edge29" class="edge">
<title>Posto &#45; MT/GO&#45;&gt;Goiania &#45; GO</title>
<path fill="none" stroke="#ff0000" d="M149.9575,-262.0539C231.0181,-282.8095 359.9582,-319.2417 440.6754,-344.1839"/>
<polygon fill="#ff0000" stroke="#ff0000" points="439.6853,-347.5413 450.2735,-347.1669 441.7628,-340.8566 439.6853,-347.5413"/>
</g>
<!-- Sao Paulo &#45; SP -->
<g id="node9" class="node">
<title>Sao Paulo &#45; SP</title>
<ellipse fill="none" stroke="#b2dfee" cx="1111.9108" cy="-830.9485" rx="68.9085" ry="68.9085"/>
<ellipse fill="none" stroke="#b2dfee" cx="1111.9108" cy="-830.9485" rx="72.92" ry="72.92"/>
<text text-anchor="middle" x="1111.9108" y="-826.7485" font-family="Times,serif" font-size="14.00" fill="#000000">Sao Paulo &#45; SP</text>
</g>
<!-- Campo Grande &#45; MS&#45;&gt;Sao Paulo &#45; SP -->
<g id="edge13" class="edge">
<title>Campo Grande &#45; MS&#45;&gt;Sao Paulo &#45; SP</title>
<path fill="none" stroke="#000000" d="M610.3345,-801.6126C729.7818,-808.5988 931.5176,-820.3978 1039.1441,-826.6926"/>
<text text-anchor="middle" x="810.7393" y="-818.3526" font-family="Times,serif" font-size="14.00" fill="#000000">1013</text>
</g>
<!-- Posto &#45; MS/SP -->
<g id="node10" class="node">
<title>Posto &#45; MS/SP</title>
<ellipse fill="none" stroke="#b2dfee" cx="783.7606" cy="-1089.3206" rx="67.8385" ry="67.8385"/>
<ellipse fill="none" stroke="#b2dfee" cx="783.7606" cy="-1089.3206" rx="71.8339" ry="71.8339"/>
<text text-anchor="middle" x="783.7606" y="-1085.1206" font-family="Times,serif" font-size="14.00" fill="#000000">Posto &#45; MS/SP</text>
</g>
<!-- Campo Grande &#45; MS&#45;&gt;Posto &#45; MS/SP -->
<g id="edge14" class="edge">
<title>Campo Grande &#45; MS&#45;&gt;Posto &#45; MS/SP</title>
<path fill="none" stroke="#000000" d="M579.5013,-866.6461C627.3917,-918.8541 691.5808,-988.8303 735.1287,-1036.3043"/>
<text text-anchor="middle" x="646.815" y="-955.6752" font-family="Times,serif" font-size="14.00" fill="#000000">490</text>
</g>
<!-- Posto &#45; MT/MS&#45;&gt;Campo Grande &#45; MS -->
<g id="edge6" class="edge">
<title>Posto &#45; MT/MS&#45;&gt;Campo Grande &#45; MS</title>
<path fill="none" stroke="#000000" d="M149.1892,-900.2053C224.1829,-878.8301 341.2257,-845.4696 422.5888,-822.2789"/>
<text text-anchor="middle" x="275.389" y="-865.4421" font-family="Times,serif" font-size="14.00" fill="#000000">202</text>
</g>
<!-- Posto &#45; GO/MS&#45;&gt;Campo Grande &#45; MS -->
<g id="edge9" class="edge">
<title>Posto &#45; GO/MS&#45;&gt;Campo Grande &#45; MS</title>
<path fill="none" stroke="#000000" d="M381.5092,-640.5717C403.2335,-665.9234 429.0401,-696.0389 452.1273,-722.981"/>
<text text-anchor="middle" x="406.3183" y="-685.9764" font-family="Times,serif" font-size="14.00" fill="#000000">496</text>
</g>
<!-- Vitoria &#45; ES -->
<g id="node14" class="node">
<title>Vitoria &#45; ES</title>
<ellipse fill="none" stroke="#b2dfee" cx="1631.7046" cy="-388.4445" rx="57.8873" ry="57.8873"/>
<ellipse fill="none" stroke="#b2dfee" cx="1631.7046" cy="-388.4445" rx="61.9003" ry="61.9003"/>
<text text-anchor="middle" x="1631.7046" y="-384.2445" font-family="Times,serif" font-size="14.00" fill="#000000">Vitoria &#45; ES</text>
</g>
<!-- Belo Horizonte &#45; MG&#45;&gt;Vitoria &#45; ES -->
<g id="edge22" class="edge">
<title>Belo Horizonte &#45; MG&#45;&gt;Vitoria &#45; ES</title>
<path fill="none" stroke="#000000" d="M1207.6307,-351.1063C1313.58,-363.852 1480.2457,-380.3724 1569.8295,-386.7712"/>
<text text-anchor="middle" x="1378.2301" y="-373.1388" font-family="Times,serif" font-size="14.00" fill="#000000">523</text>
</g>
<!-- Belo Horizonte &#45; MG&#45;&gt;Vitoria &#45; ES -->
<g id="edge32" class="edge">
<title>Belo Horizonte &#45; MG&#45;&gt;Vitoria &#45; ES</title>
<path fill="none" stroke="#ff0000" d="M1208.7142,-340.3614C1311.232,-348.7128 1469.7221,-364.8903 1560.7903,-376.4504"/>
<polygon fill="#ff0000" stroke="#ff0000" points="1560.3764,-379.9259 1570.7412,-377.7303 1561.2695,-372.9831 1560.3764,-379.9259"/>
<text text-anchor="middle" x="1370.7523" y="-345.8059" font-family="Times,serif" font-size="14.00" fill="#000000">2308</text>
</g>
<!-- Posto &#45; MG/ES -->
<g id="node15" class="node">
<title>Posto &#45; MG/ES</title>
<ellipse fill="none" stroke="#b2dfee" cx="1485.1854" cy="-79.8399" rx="70.0994" ry="70.0994"/>
<ellipse fill="none" stroke="#b2dfee" cx="1485.1854" cy="-79.8399" rx="74.1022" ry="74.1022"/>
<text text-anchor="middle" x="1485.1854" y="-75.6399" font-family="Times,serif" font-size="14.00" fill="#000000">Posto &#45; MG/ES</text>
</g>
<!-- Belo Horizonte &#45; MG&#45;&gt;Posto &#45; MG/ES -->
<g id="edge23" class="edge">
<title>Belo Horizonte &#45; MG&#45;&gt;Posto &#45; MG/ES</title>
<path fill="none" stroke="#000000" d="M1192.0412,-280.3506C1261.7188,-232.6911 1360.6008,-165.0558 1423.8228,-121.8119"/>
<text text-anchor="middle" x="1297.432" y="-205.2813" font-family="Times,serif" font-size="14.00" fill="#000000">213</text>
</g>
<!-- Posto &#45; GO/MG&#45;&gt;Belo Horizonte &#45; MG -->
<g id="edge12" class="edge">
<title>Posto &#45; GO/MG&#45;&gt;Belo Horizonte &#45; MG</title>
<path fill="none" stroke="#000000" d="M840.806,-128.7805C893.2901,-172.5072 971.6388,-234.7937 1030.4516,-279.6571"/>
<text text-anchor="middle" x="925.1288" y="-208.4188" font-family="Times,serif" font-size="14.00" fill="#000000">390</text>
</g>
<!-- Posto &#45; GO/MG&#45;&gt;Belo Horizonte &#45; MG -->
<g id="edge31" class="edge">
<title>Posto &#45; GO/MG&#45;&gt;Belo Horizonte &#45; MG</title>
<path fill="none" stroke="#ff0000" d="M847.4845,-120.3542C899.5909,-159.6184 973.5677,-217.9858 1029.8623,-264.1081"/>
<polygon fill="#ff0000" stroke="#ff0000" points="1027.7349,-266.89 1037.6842,-270.5316 1032.1774,-261.4803 1027.7349,-266.89"/>
</g>
<!-- Sao Paulo &#45; SP&#45;&gt;Belo Horizonte &#45; MG -->
<g id="edge19" class="edge">
<title>Sao Paulo &#45; SP&#45;&gt;Belo Horizonte &#45; MG</title>
<path fill="none" stroke="#000000" d="M1111.7485,-758.1706C1111.5572,-672.4385 1111.2387,-529.6224 1111.0257,-434.1344"/>
<text text-anchor="middle" x="1100.8871" y="-600.3525" font-family="Times,serif" font-size="14.00" fill="#000000">592</text>
</g>
<!-- Rio de Janeiro &#45; RJ -->
<g id="node11" class="node">
<title>Rio de Janeiro &#45; RJ</title>
<ellipse fill="none" stroke="#b2dfee" cx="1632.2186" cy="-777.6774" rx="85.1096" ry="85.1096"/>
<ellipse fill="none" stroke="#b2dfee" cx="1632.2186" cy="-777.6774" rx="89.1121" ry="89.1121"/>
<text text-anchor="middle" x="1632.2186" y="-773.4774" font-family="Times,serif" font-size="14.00" fill="#000000">Rio de Janeiro &#45; RJ</text>
</g>
<!-- Sao Paulo &#45; SP&#45;&gt;Rio de Janeiro &#45; RJ -->
<g id="edge16" class="edge">
<title>Sao Paulo &#45; SP&#45;&gt;Rio de Janeiro &#45; RJ</title>
<path fill="none" stroke="#000000" d="M1184.2574,-823.5414C1278.2186,-813.9213 1442.1676,-797.1356 1543.5225,-786.7585"/>
<text text-anchor="middle" x="1353.3899" y="-809.3499" font-family="Times,serif" font-size="14.00" fill="#000000">441</text>
</g>
<!-- Posto &#45; SP/RJ -->
<g id="node12" class="node">
<title>Posto &#45; SP/RJ</title>
<ellipse fill="none" stroke="#b2dfee" cx="1486.5467" cy="-1087.1176" rx="64.3116" ry="64.3116"/>
<ellipse fill="none" stroke="#b2dfee" cx="1486.5467" cy="-1087.1176" rx="68.321" ry="68.321"/>
<text text-anchor="middle" x="1486.5467" y="-1082.9176" font-family="Times,serif" font-size="14.00" fill="#000000">Posto &#45; SP/RJ</text>
</g>
<!-- Sao Paulo &#45; SP&#45;&gt;Posto &#45; SP/RJ -->
<g id="edge17" class="edge">
<title>Sao Paulo &#45; SP&#45;&gt;Posto &#45; SP/RJ</title>
<path fill="none" stroke="#000000" d="M1172.1025,-872.1065C1243.2547,-920.759 1360.7413,-1001.0942 1430.1812,-1048.5759"/>
<text text-anchor="middle" x="1290.6419" y="-964.5412" font-family="Times,serif" font-size="14.00" fill="#000000">220</text>
</g>
<!-- Posto &#45; SP/MG -->
<g id="node13" class="node">
<title>Posto &#45; SP/MG</title>
<ellipse fill="none" stroke="#b2dfee" cx="1250.227" cy="-583.2107" rx="69.5388" ry="69.5388"/>
<ellipse fill="none" stroke="#b2dfee" cx="1250.227" cy="-583.2107" rx="73.5399" ry="73.5399"/>
<text text-anchor="middle" x="1250.227" y="-579.0107" font-family="Times,serif" font-size="14.00" fill="#000000">Posto &#45; SP/MG</text>
</g>
<!-- Sao Paulo &#45; SP&#45;&gt;Posto &#45; SP/MG -->
<g id="edge20" class="edge">
<title>Sao Paulo &#45; SP&#45;&gt;Posto &#45; SP/MG</title>
<path fill="none" stroke="#000000" d="M1147.5307,-767.1499C1168.0217,-730.4484 1193.6958,-684.4636 1214.2472,-647.6542"/>
<text text-anchor="middle" x="1170.3889" y="-711.602" font-family="Times,serif" font-size="14.00" fill="#000000">281</text>
</g>
<!-- Posto &#45; MS/SP&#45;&gt;Sao Paulo &#45; SP -->
<g id="edge15" class="edge">
<title>Posto &#45; MS/SP&#45;&gt;Sao Paulo &#45; SP</title>
<path fill="none" stroke="#000000" d="M840.5454,-1044.6106C900.53,-997.3812 994.5841,-923.3268 1054.7214,-875.9771"/>
<text text-anchor="middle" x="937.1334" y="-964.4939" font-family="Times,serif" font-size="14.00" fill="#000000">523</text>
</g>
<!-- Rio de Janeiro &#45; RJ&#45;&gt;Vitoria &#45; ES -->
<g id="edge25" class="edge">
<title>Rio de Janeiro &#45; RJ&#45;&gt;Vitoria &#45; ES</title>
<path fill="none" stroke="#000000" d="M1632.1007,-688.3796C1632.0045,-615.5478 1631.8711,-514.5555 1631.7863,-450.354"/>
<text text-anchor="middle" x="1621.4435" y="-573.5668" font-family="Times,serif" font-size="14.00" fill="#000000">527</text>
</g>
<!-- Posto &#45; RJ/ES -->
<g id="node16" class="node">
<title>Posto &#45; RJ/ES</title>
<ellipse fill="none" stroke="#b2dfee" cx="1973.1932" cy="-582.7446" rx="64.8723" ry="64.8723"/>
<ellipse fill="none" stroke="#b2dfee" cx="1973.1932" cy="-582.7446" rx="68.8835" ry="68.8835"/>
<text text-anchor="middle" x="1973.1932" y="-578.5446" font-family="Times,serif" font-size="14.00" fill="#000000">Posto &#45; RJ/ES</text>
</g>
<!-- Rio de Janeiro &#45; RJ&#45;&gt;Posto &#45; RJ/ES -->
<g id="edge26" class="edge">
<title>Rio de Janeiro &#45; RJ&#45;&gt;Posto &#45; RJ/ES</title>
<path fill="none" stroke="#000000" d="M1709.591,-733.4442C1771.3865,-698.1161 1856.7257,-649.3283 1913.3686,-616.946"/>
<text text-anchor="middle" x="1800.9798" y="-679.3951" font-family="Times,serif" font-size="14.00" fill="#000000">275</text>
</g>
<!-- Posto &#45; SP/RJ&#45;&gt;Rio de Janeiro &#45; RJ -->
<g id="edge18" class="edge">
<title>Posto &#45; SP/RJ&#45;&gt;Rio de Janeiro &#45; RJ</title>
<path fill="none" stroke="#000000" d="M1515.6755,-1025.2415C1538.2178,-977.3564 1569.6237,-910.6432 1594.1542,-858.5348"/>
<text text-anchor="middle" x="1544.4149" y="-946.0881" font-family="Times,serif" font-size="14.00" fill="#000000">221</text>
</g>
<!-- Posto &#45; SP/MG&#45;&gt;Belo Horizonte &#45; MG -->
<g id="edge21" class="edge">
<title>Posto &#45; SP/MG&#45;&gt;Belo Horizonte &#45; MG</title>
<path fill="none" stroke="#000000" d="M1213.9599,-518.8823C1197.1779,-489.1153 1177.0069,-453.3373 1158.9702,-421.3449"/>
<text text-anchor="middle" x="1175.9651" y="-474.3136" font-family="Times,serif" font-size="14.00" fill="#000000">311</text>
</g>
<!-- Posto &#45; MG/ES&#45;&gt;Vitoria &#45; ES -->
<g id="edge24" class="edge">
<title>Posto &#45; MG/ES&#45;&gt;Vitoria &#45; ES</title>
<path fill="none" stroke="#000000" d="M1516.9779,-146.8025C1543.3215,-202.2886 1580.3318,-280.2412 1605.122,-332.4551"/>
<text text-anchor="middle" x="1550.5499" y="-243.8288" font-family="Times,serif" font-size="14.00" fill="#000000">310</text>
</g>
<!-- Posto &#45; RJ/ES&#45;&gt;Vitoria &#45; ES -->
<g id="edge27" class="edge">
<title>Posto &#45; RJ/ES&#45;&gt;Vitoria &#45; ES</title>
<path fill="none" stroke="#000000" d="M1913.3197,-548.6778C1848.9526,-512.0542 1747.5503,-454.3584 1685.597,-419.1082"/>
<text text-anchor="middle" x="1788.9583" y="-488.093" font-family="Times,serif" font-size="14.00" fill="#000000">252</text>
</g>
</g>
</svg>
