<?xml version="1.0" encoding="UTF-8" standalone="no"?>
<!DOCTYPE svg PUBLIC "-//W3C//DTD SVG 1.1//EN"
 "http://www.w3.org/Graphics/SVG/1.1/DTD/svg11.dtd">
<!-- Generated by graphviz version 2.40.1 (20161225.0304)
 -->
<!-- Title: ./App/static/img/mapa_resultado Pages: 1 -->
<svg width="2050pt" height="1169pt"
 viewBox="0.00 0.00 2049.88 1169.24" xmlns="http://www.w3.org/2000/svg" xmlns:xlink="http://www.w3.org/1999/xlink">
<g id="graph0" class="graph" transform="scale(1 1) rotate(0) translate(4 1165.2375)">
<title>./App/static/img/mapa_resultado</title>
<polygon fill="#ffffff" stroke="transparent" points="-4,4 -4,-1165.2375 2045.8847,-1165.2375 2045.8847,4 -4,4"/>
<!-- Cuiaba &#45; MT -->
<g id="node1" class="node">
<title>Cuiaba &#45; MT</title>
<ellipse fill="none" stroke="#b2dfee" cx="135.4617" cy="-583.5273" rx="60.8402" ry="60.8402"/>
<ellipse fill="none" stroke="#b2dfee" cx="135.4617" cy="-583.5273" rx="64.8352" ry="64.8352"/>
<text text-anchor="middle" x="135.4617" y="-579.3273" font-family="Times,serif" font-size="14.00" fill="#000000">Cuiaba &#45; MT</text>
</g>
<!-- Goiania &#45; GO -->
<g id="node2" class="node">
<title>Goiania &#45; GO</title>
<ellipse fill="none" stroke="#b2dfee" cx="514.1119" cy="-370.3774" rx="63.6778" ry="63.6778"/>
<ellipse fill="none" stroke="#b2dfee" cx="514.1119" cy="-370.3774" rx="67.6832" ry="67.6832"/>
<text text-anchor="middle" x="514.1119" y="-366.1774" font-family="Times,serif" font-size="14.00" fill="#000000">Goiania &#45; GO</text>
</g>
<!-- Cuiaba &#45; MT&#45;&gt;Goiania &#45; GO -->
<g id="edge1" class="edge">
<title>Cuiaba &#45; MT&#45;&gt;Goiania &#45; GO</title>
<path fill="none" stroke="#000000" d="M194.5936,-555.9585C266.5019,-518.156 386.9603,-450.3755 457.6438,-407.9661"/>
<text text-anchor="middle" x="315.6187" y="-486.1623" font-family="Times,serif" font-size="14.00" fill="#000000">895</text>
</g>
<!-- Cuiaba &#45; MT&#45;&gt;Goiania &#45; GO -->
<g id="edge28" class="edge">
<title>Cuiaba &#45; MT&#45;&gt;Goiania &#45; GO</title>
<path fill="none" stroke="#ff0000" d="M189.7054,-547.2748C256.4702,-507.1251 369.9663,-443.1049 443.4778,-404.0282"/>
<polygon fill="#ff0000" stroke="#ff0000" points="445.4832,-406.9268 452.6838,-399.1549 442.2082,-400.7401 445.4832,-406.9268"/>
</g>
<!-- Posto &#45; MT/GO -->
<g id="node3" class="node">
<title>Posto &#45; MT/GO</title>
<ellipse fill="none" stroke="#b2dfee" cx="75.6541" cy="-246.4314" rx="71.8004" ry="71.8004"/>
<ellipse fill="none" stroke="#b2dfee" cx="75.6541" cy="-246.4314" rx="75.8085" ry="75.8085"/>
<text text-anchor="middle" x="75.6541" y="-242.2314" font-family="Times,serif" font-size="14.00" fill="#000000">Posto &#45; MT/GO</text>
</g>
<!-- Cuiaba &#45; MT&#45;&gt;Posto &#45; MT/GO -->
<g id="edge2" class="edge">
<title>Cuiaba &#45; MT&#45;&gt;Posto &#45; MT/GO</title>
<path fill="none" stroke="#000000" d="M124.0716,-519.3287C114.0396,-462.785 99.4246,-380.4099 88.8787,-320.9695"/>
<text text-anchor="middle" x="95.9751" y="-424.3491" font-family="Times,serif" font-size="14.00" fill="#000000">400</text>
</g>
<!-- Campo Grande &#45; MS -->
<g id="node4" class="node">
<title>Campo Grande &#45; MS</title>
<ellipse fill="none" stroke="#b2dfee" cx="514.716" cy="-796.0201" rx="91.5285" ry="91.5285"/>
<ellipse fill="none" stroke="#b2dfee" cx="514.716" cy="-796.0201" rx="95.5184" ry="95.5184"/>
<text text-anchor="middle" x="514.716" y="-791.8201" font-family="Times,serif" font-size="14.00" fill="#000000">Campo Grande &#45; MS</text>
</g>
<!-- Cuiaba &#45; MT&#45;&gt;Campo Grande &#45; MS -->
<g id="edge4" class="edge">
<title>Cuiaba &#45; MT&#45;&gt;Campo Grande &#45; MS</title>
<path fill="none" stroke="#000000" d="M192.2399,-615.3396C255.4715,-650.7677 358.3078,-708.386 430.8229,-749.0155"/>
<text text-anchor="middle" x="301.0314" y="-686.3776" font-family="Times,serif" font-size="14.00" fill="#000000">707</text>
</g>
<!-- Posto &#45; MT/MS -->
<g id="node5" class="node">
<title>Posto &#45; MT/MS</title>
<ellipse fill="none" stroke="#b2dfee" cx="76.3018" cy="-920.9802" rx="71.8192" ry="71.8192"/>
<ellipse fill="none" stroke="#b2dfee" cx="76.3018" cy="-920.9802" rx="75.8279" ry="75.8279"/>
<text text-anchor="middle" x="76.3018" y="-916.7802" font-family="Times,serif" font-size="14.00" fill="#000000">Posto &#45; MT/MS</text>
</g>
<!-- Cuiaba &#45; MT&#45;&gt;Posto &#45; MT/MS -->
<g id="edge5" class="edge">
<title>Cuiaba &#45; MT&#45;&gt;Posto &#45; MT/MS</title>
<path fill="none" stroke="#000000" d="M124.195,-647.7939C114.2716,-704.3975 99.8149,-786.8598 89.3832,-846.3632"/>
<text text-anchor="middle" x="96.2891" y="-751.2786" font-family="Times,serif" font-size="14.00" fill="#000000">505</text>
</g>
<!-- Goiania &#45; GO&#45;&gt;Campo Grande &#45; MS -->
<g id="edge7" class="edge">
<title>Goiania &#45; GO&#45;&gt;Campo Grande &#45; MS</title>
<path fill="none" stroke="#000000" d="M509.1189,-437.829C507.2493,-508.6247 507.1903,-620.5272 508.838,-700.4104"/>
<text text-anchor="middle" x="498.4784" y="-573.3197" font-family="Times,serif" font-size="14.00" fill="#000000">846</text>
</g>
<!-- Goiania &#45; GO&#45;&gt;Campo Grande &#45; MS -->
<g id="edge29" class="edge">
<title>Goiania &#45; GO&#45;&gt;Campo Grande &#45; MS</title>
<path fill="none" stroke="#ff0000" d="M519.2964,-437.8146C521.2779,-505.5629 521.7081,-610.9659 520.4959,-689.9246"/>
<polygon fill="#ff0000" stroke="#ff0000" points="516.9887,-690.3376 520.3227,-700.3941 523.9877,-690.4534 516.9887,-690.3376"/>
</g>
<!-- Posto &#45; GO/MS -->
<g id="node6" class="node">
<title>Posto &#45; GO/MS</title>
<ellipse fill="none" stroke="#b2dfee" cx="332.4165" cy="-583.282" rx="71.2396" ry="71.2396"/>
<ellipse fill="none" stroke="#b2dfee" cx="332.4165" cy="-583.282" rx="75.2462" ry="75.2462"/>
<text text-anchor="middle" x="332.4165" y="-579.082" font-family="Times,serif" font-size="14.00" fill="#000000">Posto &#45; GO/MS</text>
</g>
<!-- Goiania &#45; GO&#45;&gt;Posto &#45; GO/MS -->
<g id="edge8" class="edge">
<title>Goiania &#45; GO&#45;&gt;Posto &#45; GO/MS</title>
<path fill="none" stroke="#000000" d="M470.1285,-421.9157C443.3469,-453.2975 409.0827,-493.4471 381.4325,-525.8467"/>
<text text-anchor="middle" x="415.2805" y="-478.0812" font-family="Times,serif" font-size="14.00" fill="#000000">350</text>
</g>
<!-- Belo Horizonte &#45; MG -->
<g id="node7" class="node">
<title>Belo Horizonte &#45; MG</title>
<ellipse fill="none" stroke="#b2dfee" cx="1110.8066" cy="-335.9151" rx="93.8058" ry="93.8058"/>
<ellipse fill="none" stroke="#b2dfee" cx="1110.8066" cy="-335.9151" rx="97.8017" ry="97.8017"/>
<text text-anchor="middle" x="1110.8066" y="-331.7151" font-family="Times,serif" font-size="14.00" fill="#000000">Belo Horizonte &#45; MG</text>
</g>
<!-- Goiania &#45; GO&#45;&gt;Belo Horizonte &#45; MG -->
<g id="edge10" class="edge">
<title>Goiania &#45; GO&#45;&gt;Belo Horizonte &#45; MG</title>
<path fill="none" stroke="#000000" d="M581.6897,-366.4745C687.1856,-360.3815 891.4884,-348.5819 1013.0426,-341.5615"/>
<text text-anchor="middle" x="786.8662" y="-358.218" font-family="Times,serif" font-size="14.00" fill="#000000">890</text>
</g>
<!-- Posto &#45; GO/MG -->
<g id="node8" class="node">
<title>Posto &#45; GO/MG</title>
<ellipse fill="none" stroke="#b2dfee" cx="783.783" cy="-76.726" rx="72.9409" ry="72.9409"/>
<ellipse fill="none" stroke="#b2dfee" cx="783.783" cy="-76.726" rx="76.9527" ry="76.9527"/>
<text text-anchor="middle" x="783.783" y="-72.526" font-family="Times,serif" font-size="14.00" fill="#000000">Posto &#45; GO/MG</text>
</g>
<!-- Goiania &#45; GO&#45;&gt;Posto &#45; GO/MG -->
<g id="edge11" class="edge">
<title>Goiania &#45; GO&#45;&gt;Posto &#45; GO/MG</title>
<path fill="none" stroke="#000000" d="M559.8579,-320.5635C607.4936,-268.6919 681.9812,-187.5804 731.8101,-133.3205"/>
<text text-anchor="middle" x="635.334" y="-231.142" font-family="Times,serif" font-size="14.00" fill="#000000">500</text>
</g>
<!-- Posto &#45; MT/GO&#45;&gt;Goiania &#45; GO -->
<g id="edge3" class="edge">
<title>Posto &#45; MT/GO&#45;&gt;Goiania &#45; GO</title>
<path fill="none" stroke="#000000" d="M148.5487,-267.0377C232.3162,-290.7176 368.5422,-329.2269 448.9216,-351.949"/>
<text text-anchor="middle" x="288.2352" y="-313.6934" font-family="Times,serif" font-size="14.00" fill="#000000">495</text>
</g>
<!-- Sao Paulo &#45; SP -->
<g id="node9" class="node">
<title>Sao Paulo &#45; SP</title>
<ellipse fill="none" stroke="#b2dfee" cx="1111.9108" cy="-830.9485" rx="68.9085" ry="68.9085"/>
<ellipse fill="none" stroke="#b2dfee" cx="1111.9108" cy="-830.9485" rx="72.92" ry="72.92"/>
<text text-anchor="middle" x="1111.9108" y="-826.7485" font-family="Times,serif" font-size="14.00" fill="#000000">Sao Paulo &#45; SP</text>
</g>
<!-- Campo Grande &#45; MS&#45;&gt;Sao Paulo &#45; SP -->
<g id="edge13" class="edge">
<title>Campo Grande &#45; MS&#45;&gt;Sao Paulo &#45; SP</title>
<path fill="none" stroke="#000000" d="M610.0362,-806.7122C729.3466,-816.0405 931.0922,-827.6713 1038.8753,-831.2875"/>
<text text-anchor="middle" x="810.4558" y="-823.1999" font-family="Times,serif" font-size="14.00" fill="#000000">1013</text>
</g>
<!-- Campo Grande &#45; MS&#45;&gt;Sao Paulo &#45; SP -->
<g id="edge30" class="edge">
<title>Campo Grande &#45; MS&#45;&gt;Sao Paulo &#45; SP</title>
<path fill="none" stroke="#ff0000" d="M610.6327,-796.513C726.5968,-801.0164 919.8044,-812.4064 1029.3981,-821.2747"/>
<polygon fill="#ff0000" stroke="#ff0000" points="1029.1597,-824.7668 1039.4128,-822.0976 1029.7331,-817.7903 1029.1597,-824.7668"/>
<text text-anchor="middle" x="806.0154" y="-796.2938" font-family="Times,serif" font-size="14.00" fill="#000000">2754</text>
</g>
<!-- Posto &#45; MS/SP -->
<g id="node10" class="node">
<title>Posto &#45; MS/SP</title>
<ellipse fill="none" stroke="#b2dfee" cx="783.7606" cy="-1089.3206" rx="67.8385" ry="67.8385"/>
<ellipse fill="none" stroke="#b2dfee" cx="783.7606" cy="-1089.3206" rx="71.8339" ry="71.8339"/>
<text text-anchor="middle" x="783.7606" y="-1085.1206" font-family="Times,serif" font-size="14.00" fill="#000000">Posto &#45; MS/SP</text>
</g>
<!-- Campo Grande &#45; MS&#45;&gt;Posto &#45; MS/SP -->
<g id="edge14" class="edge">
<title>Campo Grande &#45; MS&#45;&gt;Posto &#45; MS/SP</title>
<path fill="none" stroke="#000000" d="M579.5013,-866.6461C627.3917,-918.8541 691.5808,-988.8303 735.1287,-1036.3043"/>
<text text-anchor="middle" x="646.815" y="-955.6752" font-family="Times,serif" font-size="14.00" fill="#000000">490</text>
</g>
<!-- Posto &#45; MT/MS&#45;&gt;Campo Grande &#45; MS -->
<g id="edge6" class="edge">
<title>Posto &#45; MT/MS&#45;&gt;Campo Grande &#45; MS</title>
<path fill="none" stroke="#000000" d="M149.1892,-900.2053C224.1829,-878.8301 341.2257,-845.4696 422.5888,-822.2789"/>
<text text-anchor="middle" x="275.389" y="-865.4421" font-family="Times,serif" font-size="14.00" fill="#000000">202</text>
</g>
<!-- Posto &#45; GO/MS&#45;&gt;Campo Grande &#45; MS -->
<g id="edge9" class="edge">
<title>Posto &#45; GO/MS&#45;&gt;Campo Grande &#45; MS</title>
<path fill="none" stroke="#000000" d="M381.5092,-640.5717C403.2335,-665.9234 429.0401,-696.0389 452.1273,-722.981"/>
<text text-anchor="middle" x="406.3183" y="-685.9764" font-family="Times,serif" font-size="14.00" fill="#000000">496</text>
</g>
<!-- Vitoria &#45; ES -->
<g id="node14" class="node">
<title>Vitoria &#45; ES</title>
<ellipse fill="none" stroke="#b2dfee" cx="1631.7046" cy="-388.4445" rx="57.8873" ry="57.8873"/>
<ellipse fill="none" stroke="#b2dfee" cx="1631.7046" cy="-388.4445" rx="61.9003" ry="61.9003"/>
<text text-anchor="middle" x="1631.7046" y="-384.2445" font-family="Times,serif" font-size="14.00" fill="#000000">Vitoria &#45; ES</text>
</g>
<!-- Belo Horizonte &#45; MG&#45;&gt;Vitoria &#45; ES -->
<g id="edge22" class="edge">
<title>Belo Horizonte &#45; MG&#45;&gt;Vitoria &#45; ES</title>
<path fill="none" stroke="#000000" d="M1208.4778,-345.7647C1314.5297,-356.4594 1480.683,-373.2149 1569.9897,-382.2209"/>
<text text-anchor="middle" x="1378.7337" y="-368.1928" font-family="Times,serif" font-size="14.00" fill="#000000">523</text>
</g>
<!-- Posto &#45; MG/ES -->
<g id="node15" class="node">
<title>Posto &#45; MG/ES</title>
<ellipse fill="none" stroke="#b2dfee" cx="1485.1854" cy="-79.8399" rx="70.0994" ry="70.0994"/>
<ellipse fill="none" stroke="#b2dfee" cx="1485.1854" cy="-79.8399" rx="74.1022" ry="74.1022"/>
<text text-anchor="middle" x="1485.1854" y="-75.6399" font-family="Times,serif" font-size="14.00" fill="#000000">Posto &#45; MG/ES</text>
</g>
<!-- Belo Horizonte &#45; MG&#45;&gt;Posto &#45; MG/ES -->
<g id="edge23" class="edge">
<title>Belo Horizonte &#45; MG&#45;&gt;Posto &#45; MG/ES</title>
<path fill="none" stroke="#000000" d="M1192.0412,-280.3506C1261.7188,-232.6911 1360.6008,-165.0558 1423.8228,-121.8119"/>
<text text-anchor="middle" x="1297.432" y="-205.2813" font-family="Times,serif" font-size="14.00" fill="#000000">213</text>
</g>
<!-- Posto &#45; GO/MG&#45;&gt;Belo Horizonte &#45; MG -->
<g id="edge12" class="edge">
<title>Posto &#45; GO/MG&#45;&gt;Belo Horizonte &#45; MG</title>
<path fill="none" stroke="#000000" d="M844.1452,-124.5674C897.6659,-166.9862 976.1069,-229.1562 1034.0679,-275.0943"/>
<text text-anchor="middle" x="928.6066" y="-204.0308" font-family="Times,serif" font-size="14.00" fill="#000000">390</text>
</g>
<!-- Sao Paulo &#45; SP&#45;&gt;Belo Horizonte &#45; MG -->
<g id="edge19" class="edge">
<title>Sao Paulo &#45; SP&#45;&gt;Belo Horizonte &#45; MG</title>
<path fill="none" stroke="#000000" d="M1111.7485,-758.1706C1111.5572,-672.4385 1111.2387,-529.6224 1111.0257,-434.1344"/>
<text text-anchor="middle" x="1100.8871" y="-600.3525" font-family="Times,serif" font-size="14.00" fill="#000000">592</text>
</g>
<!-- Rio de Janeiro &#45; RJ -->
<g id="node11" class="node">
<title>Rio de Janeiro &#45; RJ</title>
<ellipse fill="none" stroke="#b2dfee" cx="1632.2186" cy="-777.6774" rx="85.1096" ry="85.1096"/>
<ellipse fill="none" stroke="#b2dfee" cx="1632.2186" cy="-777.6774" rx="89.1121" ry="89.1121"/>
<text text-anchor="middle" x="1632.2186" y="-773.4774" font-family="Times,serif" font-size="14.00" fill="#000000">Rio de Janeiro &#45; RJ</text>
</g>
<!-- Sao Paulo &#45; SP&#45;&gt;Rio de Janeiro &#45; RJ -->
<g id="edge16" class="edge">
<title>Sao Paulo &#45; SP&#45;&gt;Rio de Janeiro &#45; RJ</title>
<path fill="none" stroke="#000000" d="M1184.2574,-823.5414C1278.2186,-813.9213 1442.1676,-797.1356 1543.5225,-786.7585"/>
<text text-anchor="middle" x="1353.3899" y="-809.3499" font-family="Times,serif" font-size="14.00" fill="#000000">441</text>
</g>
<!-- Posto &#45; SP/RJ -->
<g id="node12" class="node">
<title>Posto &#45; SP/RJ</title>
<ellipse fill="none" stroke="#b2dfee" cx="1486.5467" cy="-1087.1176" rx="64.3116" ry="64.3116"/>
<ellipse fill="none" stroke="#b2dfee" cx="1486.5467" cy="-1087.1176" rx="68.321" ry="68.321"/>
<text text-anchor="middle" x="1486.5467" y="-1082.9176" font-family="Times,serif" font-size="14.00" fill="#000000">Posto &#45; SP/RJ</text>
</g>
<!-- Sao Paulo &#45; SP&#45;&gt;Posto &#45; SP/RJ -->
<g id="edge17" class="edge">
<title>Sao Paulo &#45; SP&#45;&gt;Posto &#45; SP/RJ</title>
<path fill="none" stroke="#000000" d="M1172.1025,-872.1065C1243.2547,-920.759 1360.7413,-1001.0942 1430.1812,-1048.5759"/>
<text text-anchor="middle" x="1290.6419" y="-964.5412" font-family="Times,serif" font-size="14.00" fill="#000000">220</text>
</g>
<!-- Posto &#45; SP/MG -->
<g id="node13" class="node">
<title>Posto &#45; SP/MG</title>
<ellipse fill="none" stroke="#b2dfee" cx="1250.227" cy="-583.2107" rx="69.5388" ry="69.5388"/>
<ellipse fill="none" stroke="#b2dfee" cx="1250.227" cy="-583.2107" rx="73.5399" ry="73.5399"/>
<text text-anchor="middle" x="1250.227" y="-579.0107" font-family="Times,serif" font-size="14.00" fill="#000000">Posto &#45; SP/MG</text>
</g>
<!-- Sao Paulo &#45; SP&#45;&gt;Posto &#45; SP/MG -->
<g id="edge20" class="edge">
<title>Sao Paulo &#45; SP&#45;&gt;Posto &#45; SP/MG</title>
<path fill="none" stroke="#000000" d="M1147.5307,-767.1499C1168.0217,-730.4484 1193.6958,-684.4636 1214.2472,-647.6542"/>
<text text-anchor="middle" x="1170.3889" y="-711.602" font-family="Times,serif" font-size="14.00" fill="#000000">281</text>
</g>
<!-- Posto &#45; MS/SP&#45;&gt;Sao Paulo &#45; SP -->
<g id="edge15" class="edge">
<title>Posto &#45; MS/SP&#45;&gt;Sao Paulo &#45; SP</title>
<path fill="none" stroke="#000000" d="M840.5454,-1044.6106C900.53,-997.3812 994.5841,-923.3268 1054.7214,-875.9771"/>
<text text-anchor="middle" x="937.1334" y="-964.4939" font-family="Times,serif" font-size="14.00" fill="#000000">523</text>
</g>
<!-- Rio de Janeiro &#45; RJ&#45;&gt;Vitoria &#45; ES -->
<g id="edge25" class="edge">
<title>Rio de Janeiro &#45; RJ&#45;&gt;Vitoria &#45; ES</title>
<path fill="none" stroke="#000000" d="M1632.1007,-688.3796C1632.0045,-615.5478 1631.8711,-514.5555 1631.7863,-450.354"/>
<text text-anchor="middle" x="1621.4435" y="-573.5668" font-family="Times,serif" font-size="14.00" fill="#000000">527</text>
</g>
<!-- Posto &#45; RJ/ES -->
<g id="node16" class="node">
<title>Posto &#45; RJ/ES</title>
<ellipse fill="none" stroke="#b2dfee" cx="1973.1932" cy="-582.7446" rx="64.8723" ry="64.8723"/>
<ellipse fill="none" stroke="#b2dfee" cx="1973.1932" cy="-582.7446" rx="68.8835" ry="68.8835"/>
<text text-anchor="middle" x="1973.1932" y="-578.5446" font-family="Times,serif" font-size="14.00" fill="#000000">Posto &#45; RJ/ES</text>
</g>
<!-- Rio de Janeiro &#45; RJ&#45;&gt;Posto &#45; RJ/ES -->
<g id="edge26" class="edge">
<title>Rio de Janeiro &#45; RJ&#45;&gt;Posto &#45; RJ/ES</title>
<path fill="none" stroke="#000000" d="M1709.591,-733.4442C1771.3865,-698.1161 1856.7257,-649.3283 1913.3686,-616.946"/>
<text text-anchor="middle" x="1800.9798" y="-679.3951" font-family="Times,serif" font-size="14.00" fill="#000000">275</text>
</g>
<!-- Posto &#45; SP/RJ&#45;&gt;Rio de Janeiro &#45; RJ -->
<g id="edge18" class="edge">
<title>Posto &#45; SP/RJ&#45;&gt;Rio de Janeiro &#45; RJ</title>
<path fill="none" stroke="#000000" d="M1515.6755,-1025.2415C1538.2178,-977.3564 1569.6237,-910.6432 1594.1542,-858.5348"/>
<text text-anchor="middle" x="1544.4149" y="-946.0881" font-family="Times,serif" font-size="14.00" fill="#000000">221</text>
</g>
<!-- Posto &#45; SP/MG&#45;&gt;Belo Horizonte &#45; MG -->
<g id="edge21" class="edge">
<title>Posto &#45; SP/MG&#45;&gt;Belo Horizonte &#45; MG</title>
<path fill="none" stroke="#000000" d="M1213.9599,-518.8823C1197.1779,-489.1153 1177.0069,-453.3373 1158.9702,-421.3449"/>
<text text-anchor="middle" x="1175.9651" y="-474.3136" font-family="Times,serif" font-size="14.00" fill="#000000">311</text>
</g>
<!-- Posto &#45; MG/ES&#45;&gt;Vitoria &#45; ES -->
<g id="edge24" class="edge">
<title>Posto &#45; MG/ES&#45;&gt;Vitoria &#45; ES</title>
<path fill="none" stroke="#000000" d="M1516.9779,-146.8025C1543.3215,-202.2886 1580.3318,-280.2412 1605.122,-332.4551"/>
<text text-anchor="middle" x="1550.5499" y="-243.8288" font-family="Times,serif" font-size="14.00" fill="#000000">310</text>
</g>
<!-- Posto &#45; RJ/ES&#45;&gt;Vitoria &#45; ES -->
<g id="edge27" class="edge">
<title>Posto &#45; RJ/ES&#45;&gt;Vitoria &#45; ES</title>
<path fill="none" stroke="#000000" d="M1913.3197,-548.6778C1848.9526,-512.0542 1747.5503,-454.3584 1685.597,-419.1082"/>
<text text-anchor="middle" x="1788.9583" y="-488.093" font-family="Times,serif" font-size="14.00" fill="#000000">252</text>
</g>
</g>
</svg>
