<?xml version="1.0" encoding="UTF-8" standalone="no"?>
<!DOCTYPE svg PUBLIC "-//W3C//DTD SVG 1.1//EN"
 "http://www.w3.org/Graphics/SVG/1.1/DTD/svg11.dtd">
<!-- Generated by graphviz version 2.40.1 (20161225.0304)
 -->
<!-- Title: ./App/static/img/mapa_resultado Pages: 1 -->
<svg width="1641pt" height="623pt"
 viewBox="0.00 0.00 1640.76 623.01" xmlns="http://www.w3.org/2000/svg" xmlns:xlink="http://www.w3.org/1999/xlink">
<g id="graph0" class="graph" transform="scale(1 1) rotate(0) translate(4 619.0088)">
<title>./App/static/img/mapa_resultado</title>
<polygon fill="#ffffff" stroke="transparent" points="-4,4 -4,-619.0088 1636.7586,-619.0088 1636.7586,4 -4,4"/>
<!-- Cuiaba &#45; MT -->
<g id="node1" class="node">
<title>Cuiaba &#45; MT</title>
<ellipse fill="none" stroke="#b2dfee" cx="1571.5636" cy="-299.4379" rx="57.3777" ry="57.3777"/>
<ellipse fill="none" stroke="#b2dfee" cx="1571.5636" cy="-299.4379" rx="61.3905" ry="61.3905"/>
<text text-anchor="middle" x="1571.5636" y="-295.7379" font-family="Times,serif" font-size="14.00" fill="#000000">Cuiaba &#45; MT</text>
</g>
<!-- Goiania &#45; GO -->
<g id="node2" class="node">
<title>Goiania &#45; GO</title>
<ellipse fill="none" stroke="#b2dfee" cx="1167.0376" cy="-496.9889" rx="59.2806" ry="59.2806"/>
<ellipse fill="none" stroke="#b2dfee" cx="1167.0376" cy="-496.9889" rx="63.2898" ry="63.2898"/>
<text text-anchor="middle" x="1167.0376" y="-493.2889" font-family="Times,serif" font-size="14.00" fill="#000000">Goiania &#45; GO</text>
</g>
<!-- Cuiaba &#45; MT&#45;&gt;Goiania &#45; GO -->
<g id="edge1" class="edge">
<title>Cuiaba &#45; MT&#45;&gt;Goiania &#45; GO</title>
<path fill="none" stroke="#000000" d="M1516.1642,-326.4923C1439.4555,-363.9531 1301.6012,-431.2745 1224.0473,-469.1481"/>
<text text-anchor="middle" x="1359.6057" y="-401.6202" font-family="Times,serif" font-size="14.00" fill="#000000">895</text>
</g>
<!-- Campo Grande &#45; MS -->
<g id="node3" class="node">
<title>Campo Grande &#45; MS</title>
<ellipse fill="none" stroke="#b2dfee" cx="1166.2407" cy="-102.3751" rx="85.5945" ry="85.5945"/>
<ellipse fill="none" stroke="#b2dfee" cx="1166.2407" cy="-102.3751" rx="89.5853" ry="89.5853"/>
<text text-anchor="middle" x="1166.2407" y="-98.6751" font-family="Times,serif" font-size="14.00" fill="#000000">Campo Grande &#45; MS</text>
</g>
<!-- Cuiaba &#45; MT&#45;&gt;Campo Grande &#45; MS -->
<g id="edge2" class="edge">
<title>Cuiaba &#45; MT&#45;&gt;Campo Grande &#45; MS</title>
<path fill="none" stroke="#000000" d="M1518.5781,-268.3367C1450.1159,-232.4613 1330.1944,-173.8905 1249.5038,-136.7168"/>
<text text-anchor="middle" x="1373.541" y="-206.3268" font-family="Times,serif" font-size="14.00" fill="#000000">707</text>
</g>
<!-- Cuiaba &#45; MT&#45;&gt;Campo Grande &#45; MS -->
<g id="edge10" class="edge">
<title>Cuiaba &#45; MT&#45;&gt;Campo Grande &#45; MS</title>
<path fill="none" stroke="#ff0000" d="M1514.3782,-276.9753C1446.4952,-246.4653 1332.5956,-191.4283 1253.6431,-151.2281"/>
<polygon fill="#ff0000" stroke="#ff0000" points="1255.1729,-148.0794 1244.6751,-146.6485 1251.9894,-154.3136 1255.1729,-148.0794"/>
</g>
<!-- Goiania &#45; GO&#45;&gt;Campo Grande &#45; MS -->
<g id="edge3" class="edge">
<title>Goiania &#45; GO&#45;&gt;Campo Grande &#45; MS</title>
<path fill="none" stroke="#000000" d="M1166.9096,-433.5874C1166.7778,-368.336 1166.5713,-266.0897 1166.4226,-192.4572"/>
<text text-anchor="middle" x="1156.1661" y="-316.8223" font-family="Times,serif" font-size="14.00" fill="#000000">846</text>
</g>
<!-- Belo Horizonte &#45; MG -->
<g id="node4" class="node">
<title>Belo Horizonte &#45; MG</title>
<ellipse fill="none" stroke="#b2dfee" cx="605.4523" cy="-523.9165" rx="87.1806" ry="87.1806"/>
<ellipse fill="none" stroke="#b2dfee" cx="605.4523" cy="-523.9165" rx="91.1846" ry="91.1846"/>
<text text-anchor="middle" x="605.4523" y="-520.2165" font-family="Times,serif" font-size="14.00" fill="#000000">Belo Horizonte &#45; MG</text>
</g>
<!-- Goiania &#45; GO&#45;&gt;Belo Horizonte &#45; MG -->
<g id="edge4" class="edge">
<title>Goiania &#45; GO&#45;&gt;Belo Horizonte &#45; MG</title>
<path fill="none" stroke="#000000" d="M1103.7083,-500.0255C1004.3136,-504.7914 811.2494,-514.0487 696.8216,-519.5354"/>
<text text-anchor="middle" x="889.7649" y="-513.5805" font-family="Times,serif" font-size="14.00" fill="#000000">890</text>
</g>
<!-- Sao Paulo &#45; SP -->
<g id="node5" class="node">
<title>Sao Paulo &#45; SP</title>
<ellipse fill="none" stroke="#b2dfee" cx="604.6776" cy="-76.4909" rx="63.8777" ry="63.8777"/>
<ellipse fill="none" stroke="#b2dfee" cx="604.6776" cy="-76.4909" rx="67.8893" ry="67.8893"/>
<text text-anchor="middle" x="604.6776" y="-72.7909" font-family="Times,serif" font-size="14.00" fill="#000000">Sao Paulo &#45; SP</text>
</g>
<!-- Campo Grande &#45; MS&#45;&gt;Sao Paulo &#45; SP -->
<g id="edge5" class="edge">
<title>Campo Grande &#45; MS&#45;&gt;Sao Paulo &#45; SP</title>
<path fill="none" stroke="#000000" d="M1076.8733,-93.1486C964.4215,-85.6041 773.7909,-76.9905 672.5592,-75.0322"/>
<text text-anchor="middle" x="860.7162" y="-87.8904" font-family="Times,serif" font-size="14.00" fill="#000000">1013</text>
</g>
<!-- Campo Grande &#45; MS&#45;&gt;Sao Paulo &#45; SP -->
<g id="edge11" class="edge">
<title>Campo Grande &#45; MS&#45;&gt;Sao Paulo &#45; SP</title>
<path fill="none" stroke="#ff0000" d="M1076.4035,-103.3414C967.3654,-100.6007 785.3245,-92.1213 682.1738,-84.9044"/>
<polygon fill="#ff0000" stroke="#ff0000" points="682.361,-81.4089 672.1371,-84.1879 681.8625,-88.3911 682.361,-81.4089"/>
</g>
<!-- Vitoria &#45; ES -->
<g id="node7" class="node">
<title>Vitoria &#45; ES</title>
<ellipse fill="none" stroke="#b2dfee" cx="83.5373" cy="-516.1127" rx="53.8943" ry="53.8943"/>
<ellipse fill="none" stroke="#b2dfee" cx="83.5373" cy="-516.1127" rx="57.8905" ry="57.8905"/>
<text text-anchor="middle" x="83.5373" y="-512.4127" font-family="Times,serif" font-size="14.00" fill="#000000">Vitoria &#45; ES</text>
</g>
<!-- Belo Horizonte &#45; MG&#45;&gt;Vitoria &#45; ES -->
<g id="edge8" class="edge">
<title>Belo Horizonte &#45; MG&#45;&gt;Vitoria &#45; ES</title>
<path fill="none" stroke="#000000" d="M514.2432,-522.5527C407.0047,-520.9493 232.2069,-518.3356 141.8013,-516.9838"/>
<text text-anchor="middle" x="317.5222" y="-523.5683" font-family="Times,serif" font-size="14.00" fill="#000000">523</text>
</g>
<!-- Sao Paulo &#45; SP&#45;&gt;Belo Horizonte &#45; MG -->
<g id="edge7" class="edge">
<title>Sao Paulo &#45; SP&#45;&gt;Belo Horizonte &#45; MG</title>
<path fill="none" stroke="#000000" d="M604.7953,-144.4452C604.9286,-221.4516 605.1465,-347.339 605.2945,-432.8129"/>
<text text-anchor="middle" x="594.5449" y="-292.4291" font-family="Times,serif" font-size="14.00" fill="#000000">592</text>
</g>
<!-- Rio de Janeiro &#45; RJ -->
<g id="node6" class="node">
<title>Rio de Janeiro &#45; RJ</title>
<ellipse fill="none" stroke="#b2dfee" cx="83.293" cy="-83.293" rx="79.0964" ry="79.0964"/>
<ellipse fill="none" stroke="#b2dfee" cx="83.293" cy="-83.293" rx="83.0864" ry="83.0864"/>
<text text-anchor="middle" x="83.293" y="-79.593" font-family="Times,serif" font-size="14.00" fill="#000000">Rio de Janeiro &#45; RJ</text>
</g>
<!-- Sao Paulo &#45; SP&#45;&gt;Rio de Janeiro &#45; RJ -->
<g id="edge6" class="edge">
<title>Sao Paulo &#45; SP&#45;&gt;Rio de Janeiro &#45; RJ</title>
<path fill="none" stroke="#000000" d="M536.9887,-72.6567C442.0333,-71.3216 269.4172,-73.4433 166.6654,-77.0974"/>
<text text-anchor="middle" x="341.327" y="-78.6771" font-family="Times,serif" font-size="14.00" fill="#000000">441</text>
</g>
<!-- Sao Paulo &#45; SP&#45;&gt;Rio de Janeiro &#45; RJ -->
<g id="edge12" class="edge">
<title>Sao Paulo &#45; SP&#45;&gt;Rio de Janeiro &#45; RJ</title>
<path fill="none" stroke="#ff0000" d="M537.1117,-82.0896C445.2814,-85.7787 280.6555,-88.1286 176.9511,-87.395"/>
<polygon fill="#ff0000" stroke="#ff0000" points="176.8272,-83.8939 166.7987,-87.3114 176.7695,-90.8937 176.8272,-83.8939"/>
<text text-anchor="middle" x="371.0314" y="-88.5423" font-family="Times,serif" font-size="14.00" fill="#000000">2161</text>
</g>
<!-- Rio de Janeiro &#45; RJ&#45;&gt;Vitoria &#45; ES -->
<g id="edge9" class="edge">
<title>Rio de Janeiro &#45; RJ&#45;&gt;Vitoria &#45; ES</title>
<path fill="none" stroke="#000000" d="M83.3401,-166.745C83.3883,-252.2309 83.4621,-382.9085 83.5044,-457.8531"/>
<text text-anchor="middle" x="72.9222" y="-316.099" font-family="Times,serif" font-size="14.00" fill="#000000">527</text>
</g>
</g>
</svg>
